<?xml version="1.0" encoding="UTF-8"?>
<svg version="1.1" xmlns="http://www.w3.org/2000/svg" width="1024" height="1024">
<path d="M0 0 C1.37855788 0.02055117 2.75719686 0.03619287 4.13586426 0.04716492 C7.74168976 0.08890541 11.34253608 0.19668405 14.94641113 0.31890869 C18.63285957 0.43202929 22.32012389 0.4817979 26.0078125 0.53710938 C33.22621372 0.65461514 40.44053091 0.84198948 47.65625 1.07421875 C50.67887654 20.24059595 53.43430708 39.43811753 56.1004076 58.65652418 C56.53725911 61.8039842 56.97527797 64.95128138 57.41326308 68.09858382 C58.44488479 75.5119343 59.47455391 82.92555407 60.50292969 90.33935547 C61.5612754 97.96895409 62.62306641 105.5980679 63.68646073 113.22696435 C64.60569844 119.82255276 65.52283397 126.41843112 66.43827224 133.01454794 C66.98250208 136.93579588 67.52752523 140.85692928 68.07459259 144.77778244 C68.58595521 148.44339036 69.09469411 152.10935289 69.60139465 155.77560806 C69.87626214 157.75963462 70.15382202 159.7432876 70.43145752 161.72692871 C70.67521118 163.49627274 70.67521118 163.49627274 70.92388916 165.30136108 C71.06618076 166.32581015 71.20847237 167.35025921 71.35507584 168.40575218 C71.65625 171.07421875 71.65625 171.07421875 71.65625 175.07421875 C53.50625 175.07421875 35.35625 175.07421875 16.65625 175.07421875 C15.04085971 170.22804788 14.21450696 166.24594384 13.83984375 161.26171875 C13.77845718 160.52977295 13.71707062 159.79782715 13.65382385 159.04370117 C13.46015102 156.72105119 13.27643777 154.39775626 13.09375 152.07421875 C12.90576759 149.75086232 12.71564246 147.42770806 12.52296448 145.10473633 C12.40407621 143.66472317 12.28813024 142.22446294 12.17564392 140.78393555 C11.85592719 136.83678279 11.36554174 132.97021095 10.65625 129.07421875 C-17.07770882 137.70933414 -54.3514824 150.46750781 -73.67268372 173.67012024 C-75.92058491 175.55889913 -77.27108678 175.437247 -80.18237305 175.41479492 C-81.1631633 175.41456833 -82.14395355 175.41434174 -83.15446472 175.41410828 C-84.21079605 175.39862442 -85.26712738 175.38314056 -86.35546875 175.3671875 C-87.43883011 175.36294266 -88.52219147 175.35869781 -89.63838196 175.35432434 C-93.10292277 175.33751444 -96.56688462 175.29985723 -100.03125 175.26171875 C-102.37824682 175.24667494 -104.72525274 175.23298601 -107.07226562 175.22070312 C-112.82962505 175.18760336 -118.58664617 175.1373808 -124.34375 175.07421875 C-120.58076309 168.03183161 -116.64592511 161.15204414 -112.40625 154.38671875 C-111.85195312 153.49662109 -111.29765625 152.60652344 -110.7265625 151.68945312 C-108.9356409 148.81560232 -107.14011518 145.94466959 -105.34375 143.07421875 C-104.10277695 141.08859643 -102.86189241 139.1029188 -101.62109375 137.1171875 C-99.72627111 134.0853239 -97.83095417 131.05377519 -95.93408203 128.02319336 C-91.86034458 121.5124412 -87.81365745 114.98562611 -83.78125 108.44921875 C-78.18548112 99.38645946 -72.48185698 90.39511517 -66.75 81.41796875 C-64.07024963 77.21989481 -61.40917028 73.01050925 -58.75708008 68.79492188 C-53.73716028 60.8161974 -48.64629972 52.88791043 -43.49121094 44.99584961 C-40.38104951 40.22850621 -37.29941804 35.44460735 -34.24609375 30.640625 C-33.54581055 29.53992676 -32.84552734 28.43922852 -32.12402344 27.30517578 C-30.77141827 25.1765426 -29.42161124 23.04612765 -28.07519531 20.91357422 C-27.44581055 19.92373535 -26.81642578 18.93389648 -26.16796875 17.9140625 C-25.62229248 17.05159912 -25.07661621 16.18913574 -24.5144043 15.30053711 C-23.79808838 14.23585205 -23.08177246 13.17116699 -22.34375 12.07421875 C-21.84352325 11.15832474 -21.34329651 10.24243073 -20.82791138 9.29878235 C-15.26542268 0.09517147 -10.33456281 -0.44622636 0 0 Z M4.65625 47.07421875 C3.17122326 49.44963889 1.74633242 51.83783586 0.34375 54.26171875 C-0.0992041 55.02057373 -0.5421582 55.77942871 -0.99853516 56.5612793 C-4.95890732 63.36416554 -8.84312926 70.21035378 -12.73510742 77.05249023 C-17.18456024 84.84914667 -21.79130364 92.54521284 -26.4296875 100.23046875 C-30.79853334 107.47378661 -35.06988165 114.7746029 -39.34375 122.07421875 C-35.00762071 123.51959518 -31.95253584 121.66520375 -27.8828125 120.05859375 C-26.60725243 119.56792923 -26.60725243 119.56792923 -25.30592346 119.06735229 C-22.52346487 117.99488411 -19.74620062 116.90958267 -16.96875 115.82421875 C-15.06197367 115.08677342 -13.15482646 114.35028639 -11.24731445 113.61474609 C-7.41971884 112.13796731 -3.5937926 110.65698472 0.23095703 109.17285156 C7.62774915 106.30643798 15.04731105 103.50104221 22.46875 100.69921875 C24.74632083 99.83783978 27.02368556 98.9759155 29.30078125 98.11328125 C30.22221924 97.76475098 31.14365723 97.4162207 32.09301758 97.05712891 C34.62405236 96.08656542 37.14200735 95.08739986 39.65625 94.07421875 C39.65625 93.74421875 39.65625 93.41421875 39.65625 93.07421875 C32.21682911 93.5835845 24.91922208 94.42362746 17.56640625 95.671875 C14.65625 96.07421875 14.65625 96.07421875 9.65625 96.07421875 C8.33625 79.90421875 7.01625 63.73421875 5.65625 47.07421875 C5.32625 47.07421875 4.99625 47.07421875 4.65625 47.07421875 Z " fill="#0C6DD5" transform="translate(367.34375,378.92578125)"/>
<path d="M0 0 C43.89 0 87.78 0 133 0 C131.87377821 10.13599614 131.87377821 10.13599614 131.0625 13.96484375 C130.80339844 15.19364258 130.80339844 15.19364258 130.5390625 16.44726562 C130.27222656 17.67993164 130.27222656 17.67993164 130 18.9375 C129.73316406 20.21077148 129.73316406 20.21077148 129.4609375 21.50976562 C128.13455704 27.73088592 128.13455704 27.73088592 127 30 C113.47 30 99.94 30 86 30 C85.34 34.62 84.68 39.24 84 44 C83.34401778 47.57060889 82.66719548 51.12269142 81.93701172 54.67724609 C81.74164825 55.64489395 81.54628479 56.61254181 81.34500122 57.60951233 C80.71034104 60.7482666 80.07008274 63.88584882 79.4296875 67.0234375 C78.98379129 69.22296176 78.53825079 71.42255816 78.0930481 73.6222229 C76.92937859 79.36685188 75.76092982 85.11049827 74.59143066 90.85394287 C73.18436617 97.7692729 71.78333329 104.6858272 70.38127136 111.60217285 C68.25876165 122.06905246 66.12866963 132.53436292 64 143 C49.48 143 34.96 143 20 143 C21.19531069 135.23048053 22.40041185 127.55666445 23.95532227 119.86694336 C24.13932587 118.94488098 24.32332947 118.0228186 24.51290894 117.07281494 C25.11129336 114.07792673 25.71376342 111.0838777 26.31640625 108.08984375 C26.7373621 105.98812799 27.15808876 103.88636632 27.57859802 101.78456116 C28.45517934 97.40623052 29.33363479 93.0282819 30.21362305 88.65063477 C31.34162235 83.03907349 32.46622823 77.42683912 33.58961582 71.81435299 C34.45606442 67.48626237 35.32360148 63.15839056 36.19154167 58.83059883 C36.6067674 56.76016354 37.021814 54.68969231 37.43667793 52.61918449 C38.01480372 49.73542187 38.59422948 46.85192367 39.17407227 43.96850586 C39.34499893 43.11499039 39.5159256 42.26147491 39.69203186 41.38209534 C39.85038513 40.59603912 40.0087384 39.80998291 40.17189026 39.00010681 C40.30848336 38.32011596 40.44507647 37.6401251 40.58580875 36.93952847 C41.01084471 34.94921762 41.50639425 32.974423 42 31 C27.81 31 13.62 31 -1 31 C-1.020625 27.555625 -1.04125 24.11125 -1.0625 20.5625 C-1.071604 19.49588135 -1.08070801 18.4292627 -1.09008789 17.33032227 C-1.09258545 16.45947998 -1.09508301 15.5886377 -1.09765625 14.69140625 C-1.10289307 13.81685791 -1.10812988 12.94230957 -1.11352539 12.04125977 C-0.96316381 8.01318609 -0.44513613 4.00622516 0 0 Z " fill="#1A1F28" transform="translate(435,411)"/>
<path d="M0 0 C5.24050198 4.26618482 8.2563009 8.7246067 9.6640625 15.38671875 C10.4583347 24.435547 8.62820761 33.08798442 6.8203125 41.8984375 C6.52793137 43.36226915 6.23648445 44.82628767 5.94592285 46.29048157 C5.18580325 50.10793606 4.41318165 53.92275091 3.63775635 57.73712158 C2.70615625 62.33342354 1.79041911 66.93290989 0.8719635 71.53185272 C-0.51865923 78.485963 -1.92913019 85.43577657 -3.3359375 92.38671875 C-17.5259375 92.38671875 -31.7159375 92.38671875 -46.3359375 92.38671875 C-45.2840625 86.87984375 -45.2840625 86.87984375 -44.2109375 81.26171875 C-43.97334717 80.01430908 -43.73575684 78.76689941 -43.4909668 77.48168945 C-42.26761236 71.09842566 -41.00108441 64.72825775 -39.66796875 58.3671875 C-39.25466843 56.37536342 -38.84204006 54.38340103 -38.42950439 52.39141846 C-38.03283698 50.49417606 -37.62470917 48.5993412 -37.21630859 46.70458984 C-34.94159509 36.11992159 -34.94159509 36.11992159 -35.3359375 25.38671875 C-37.41401524 22.59499718 -38.3661151 22.37930671 -41.8984375 21.51171875 C-49.35424509 20.83891107 -56.62255893 23.71213629 -62.3359375 28.38671875 C-68.71093866 33.9866676 -69.87698473 40.15523764 -71.29296875 48.28515625 C-71.64291145 50.13120956 -71.64291145 50.13120956 -71.99992371 52.01455688 C-72.61224468 55.26322435 -73.20549078 58.51458038 -73.78881836 61.76855469 C-74.61981553 66.37429869 -75.48816222 70.97319641 -76.35050964 75.57315063 C-76.80680307 78.01916334 -77.25660014 80.46639817 -77.69941711 82.91488647 C-77.9002037 84.01337921 -78.1009903 85.11187195 -78.30786133 86.24365234 C-78.48295731 87.21515228 -78.65805328 88.18665222 -78.8384552 89.18759155 C-79.3359375 91.38671875 -79.3359375 91.38671875 -80.3359375 92.38671875 C-83.29299071 92.47540174 -86.22658806 92.50192171 -89.18359375 92.484375 C-90.51323402 92.48225258 -90.51323402 92.48225258 -91.86973572 92.48008728 C-94.71267004 92.4744709 -97.55552681 92.46191566 -100.3984375 92.44921875 C-102.32096241 92.44420586 -104.24348854 92.43964259 -106.16601562 92.43554688 C-110.88935299 92.42449616 -115.61263208 92.40722058 -120.3359375 92.38671875 C-119.6591948 83.32451882 -117.88807814 74.56209794 -116.0625 65.6796875 C-115.73442966 64.06610255 -115.40674938 62.45243826 -115.07943726 60.83869934 C-114.39483897 57.4685852 -113.70702801 54.0991495 -113.01660156 50.73022461 C-112.13910173 46.44824051 -111.26736695 42.16511025 -110.39779091 37.88151073 C-109.72150955 34.55143049 -109.04327291 31.22175101 -108.36436081 27.89220619 C-108.04274782 26.31488905 -107.72145175 24.73750724 -107.40050125 23.16005516 C-106.94797468 20.93861173 -106.49311133 18.71765879 -106.03759766 16.49682617 C-105.78080231 15.24125412 -105.52400696 13.98568207 -105.25942993 12.69206238 C-104.01891748 6.90876391 -102.66594703 1.15009337 -101.3359375 -4.61328125 C-88.7959375 -4.61328125 -76.2559375 -4.61328125 -63.3359375 -4.61328125 C-64.4609375 5.51171875 -64.4609375 5.51171875 -65.3359375 10.38671875 C-64.41554688 9.72285156 -63.49515625 9.05898438 -62.546875 8.375 C-45.26179034 -3.79173047 -19.43418264 -13.4219355 0 0 Z " fill="#1D222B" transform="translate(730.3359375,461.61328125)"/>
<path d="M0 0 C13.86 0 27.72 0 42 0 C38.1268382 20.24708293 34.16173864 40.47484577 30.16680908 60.69818115 C29.21079553 65.53863127 28.255749 70.37927229 27.30052948 75.21987915 C25.86773706 82.48006131 24.43376097 89.74000875 23 97 C9.14 97 -4.72 97 -19 97 C-18.35360122 90.53601221 -17.62766627 84.41220477 -16.34179688 78.09375 C-16.09527122 76.85279823 -16.09527122 76.85279823 -15.84376526 75.58677673 C-15.30679018 72.89022151 -14.76296074 70.19510343 -14.21875 67.5 C-13.84109342 65.61343011 -13.46377962 63.72679157 -13.08679199 61.84008789 C-12.29963818 57.90596503 -11.50923149 53.97251485 -10.71630859 50.03955078 C-9.69884071 44.99209601 -8.6882539 39.94329364 -7.67989349 34.89401245 C-6.90320344 31.00749954 -6.12360162 27.12157544 -5.34303284 23.23583984 C-4.96909689 21.37319865 -4.59591534 19.51040585 -4.22349548 17.64746094 C-3.70459561 15.05475205 -3.18194798 12.46282763 -2.65820312 9.87109375 C-2.50440689 9.09918198 -2.35061066 8.3272702 -2.19215393 7.53196716 C-1.11441512 2.22883025 -1.11441512 2.22883025 0 0 Z " fill="#1D222B" transform="translate(570,457)"/>
<path d="M0 0 C6.86080878 0.45738725 13.96112588 2.02577369 18.75 7.25 C21.50868814 11.93976984 22.29874462 15.68813845 21.44140625 20.9765625 C19.89921865 26.04748444 17.04872834 29.87394463 12.4921875 32.6015625 C4.71660556 36.16857864 -3.69906765 38.11579456 -12.05078125 35.30859375 C-17.64737016 32.66368729 -21.42636732 29.89726537 -24.25 24.25 C-25.03598177 18.89736465 -24.94501382 14.48051038 -21.8125 9.9375 C-17.58874448 5.00479261 -12.37323527 2.06204117 -6.125 0.4375 C-4.08247077 0.30429157 -2.04083929 0.15698764 0 0 Z " fill="#21252E" transform="translate(598.25,408.75)"/>
<path d="M0 0 C43.89 0 87.78 0 133 0 C131.875 10.125 131.875 10.125 131 14 C129 10.25 129 10.25 129 8 C129.66 8 130.32 8 131 8 C130.67 6.02 130.34 4.04 130 2 C130.66 1.67 131.32 1.34 132 1 C89.1 1.33 46.2 1.66 2 2 C2 4.97 2 7.94 2 11 C1.67 11.99 1.34 12.98 1 14 C0.77281504 16.56634861 0.58391816 19.11678107 0.4375 21.6875 C0.39431641 22.38939453 0.35113281 23.09128906 0.30664062 23.81445312 C0.2008264 25.54275206 0.09993419 27.2713511 0 29 C-0.33 29 -0.66 29 -1 29 C-1.02948491 25.85418698 -1.04695916 22.70841037 -1.0625 19.5625 C-1.07506836 18.24475586 -1.07506836 18.24475586 -1.08789062 16.90039062 C-1.09111328 16.02705078 -1.09433594 15.15371094 -1.09765625 14.25390625 C-1.10551147 13.06776733 -1.10551147 13.06776733 -1.11352539 11.85766602 C-0.95593722 7.89084983 -0.4384071 3.94566394 0 0 Z " fill="#42464C" transform="translate(435,411)"/>
<path d="M0 0 C9.57 0 19.14 0 29 0 C29 0.33 29 0.66 29 1 C15.635 1.495 15.635 1.495 2 2 C2 4.97 2 7.94 2 11 C1.67 11.99 1.34 12.98 1 14 C0.77281504 16.56634861 0.58391816 19.11678107 0.4375 21.6875 C0.39431641 22.38939453 0.35113281 23.09128906 0.30664062 23.81445312 C0.2008264 25.54275206 0.09993419 27.2713511 0 29 C-0.33 29 -0.66 29 -1 29 C-1.02948491 25.85418698 -1.04695916 22.70841037 -1.0625 19.5625 C-1.07506836 18.24475586 -1.07506836 18.24475586 -1.08789062 16.90039062 C-1.09111328 16.02705078 -1.09433594 15.15371094 -1.09765625 14.25390625 C-1.10551147 13.06776733 -1.10551147 13.06776733 -1.11352539 11.85766602 C-0.95593722 7.89084983 -0.4384071 3.94566394 0 0 Z " fill="#5A5F65" transform="translate(435,411)"/>
</svg>
